name Run_500 02_newCOP3_v24.mot
datacolumns 19
datarows 22
range 1.35416700 1.37604200
endheader
                time	   R_ground_force_vx	   R_ground_force_vy	   R_ground_force_vz	   R_ground_force_px	   R_ground_force_py	   R_ground_force_pz	   L_ground_force_vx	   L_ground_force_vy	   L_ground_force_vz	   L_ground_force_px	   L_ground_force_py	   L_ground_force_pz	   R_ground_torque_x	   R_ground_torque_y	   R_ground_torque_z	   L_ground_torque_x	   L_ground_torque_y	   L_ground_torque_z	
          1.35416700	       -265.99972500	       1415.03894000	         29.36779000	          0.93534600	          0.00000000	         -0.33642400	          0.00000000	          0.00000000	          0.00000000	          0.00000000	          0.00000000	          0.00000000	          0.00000000	         -4.60673900	          0.00000000	          0.00000000	          0.00000000	          0.00000000	
          1.35520800	       -270.70910600	       1420.92041000	         28.14076400	          0.93240000	          0.00000000	         -0.33655300	          0.00000000	          0.00000000	          0.00000000	          0.00000000	          0.00000000	          0.00000000	          0.00000000	         -4.65223200	          0.00000000	          0.00000000	          0.00000000	          0.00000000	
          1.35625000	       -275.18438700	       1426.89831500	         26.68298700	          0.92937000	          0.00000000	         -0.33669500	          0.00000000	          0.00000000	          0.00000000	          0.00000000	          0.00000000	          0.00000000	          0.00000000	         -4.68089200	          0.00000000	          0.00000000	          0.00000000	          0.00000000	
          1.35729200	       -279.34869400	       1433.11499000	         25.02309600	          0.92625700	          0.00000000	         -0.33684800	          0.00000000	          0.00000000	          0.00000000	          0.00000000	          0.00000000	          0.00000000	          0.00000000	         -4.69277200	          0.00000000	          0.00000000	          0.00000000	          0.00000000	
          1.35833300	       -283.12875400	       1439.69274900	         23.19277800	          0.92306100	          0.00000000	         -0.33700400	          0.00000000	          0.00000000	          0.00000000	          0.00000000	          0.00000000	          0.00000000	          0.00000000	         -4.68800800	          0.00000000	          0.00000000	          0.00000000	          0.00000000	
          1.35937500	       -286.45709200	       1446.73376500	         21.22607600	          0.91978200	          0.00000000	         -0.33715700	          0.00000000	          0.00000000	          0.00000000	          0.00000000	          0.00000000	          0.00000000	          0.00000000	         -4.66680800	          0.00000000	          0.00000000	          0.00000000	          0.00000000	
          1.36041700	       -289.27368200	       1454.31970200	         19.15863600	          0.91642200	          0.00000000	         -0.33730300	          0.00000000	          0.00000000	          0.00000000	          0.00000000	          0.00000000	          0.00000000	          0.00000000	         -4.62945000	          0.00000000	          0.00000000	          0.00000000	          0.00000000	
          1.36145800	       -291.52743500	       1462.51257300	         17.02692200	          0.91298300	          0.00000000	         -0.33743400	          0.00000000	          0.00000000	          0.00000000	          0.00000000	          0.00000000	          0.00000000	          0.00000000	         -4.57628100	          0.00000000	          0.00000000	          0.00000000	          0.00000000	
          1.36250000	       -293.17709400	       1471.35473600	         14.86742900	          0.90946700	          0.00000000	         -0.33754500	          0.00000000	          0.00000000	          0.00000000	          0.00000000	          0.00000000	          0.00000000	          0.00000000	         -4.50770000	          0.00000000	          0.00000000	          0.00000000	          0.00000000	
          1.36354200	       -294.19168100	       1480.86975100	         12.71590300	          0.90587800	          0.00000000	         -0.33763000	          0.00000000	          0.00000000	          0.00000000	          0.00000000	          0.00000000	          0.00000000	          0.00000000	         -4.42416700	          0.00000000	          0.00000000	          0.00000000	          0.00000000	
          1.36458300	       -294.55044600	       1491.06396500	         10.60659100	          0.90222000	          0.00000000	         -0.33768500	          0.00000000	          0.00000000	          0.00000000	          0.00000000	          0.00000000	          0.00000000	          0.00000000	         -4.32618300	          0.00000000	          0.00000000	          0.00000000	          0.00000000	
          1.36562500	       -294.24276700	       1501.92663600	          8.57154100	          0.89849800	          0.00000000	         -0.33770600	          0.00000000	          0.00000000	          0.00000000	          0.00000000	          0.00000000	          0.00000000	          0.00000000	         -4.21429100	          0.00000000	          0.00000000	          0.00000000	          0.00000000	
          1.36666700	       -293.26721200	       1513.43225100	          6.63995900	          0.89471600	          0.00000000	         -0.33769100	          0.00000000	          0.00000000	          0.00000000	          0.00000000	          0.00000000	          0.00000000	          0.00000000	         -4.08907100	          0.00000000	          0.00000000	          0.00000000	          0.00000000	
          1.36770800	       -291.63101200	       1525.54077100	          4.83766000	          0.89088100	          0.00000000	         -0.33763600	          0.00000000	          0.00000000	          0.00000000	          0.00000000	          0.00000000	          0.00000000	          0.00000000	         -3.95113000	          0.00000000	          0.00000000	          0.00000000	          0.00000000	
          1.36875000	       -289.34875500	       1538.20019500	          3.18659300	          0.88699800	          0.00000000	         -0.33754200	          0.00000000	          0.00000000	          0.00000000	          0.00000000	          0.00000000	          0.00000000	          0.00000000	         -3.80109700	          0.00000000	          0.00000000	          0.00000000	          0.00000000	
          1.36979200	       -286.44140600	       1551.34692400	          1.70448500	          0.88307300	          0.00000000	         -0.33740800	          0.00000000	          0.00000000	          0.00000000	          0.00000000	          0.00000000	          0.00000000	          0.00000000	         -3.63962200	          0.00000000	          0.00000000	          0.00000000	          0.00000000	
          1.37083300	       -282.93524200	       1564.90783700	          0.40457800	          0.87911300	          0.00000000	         -0.33723600	          0.00000000	          0.00000000	          0.00000000	          0.00000000	          0.00000000	          0.00000000	          0.00000000	         -3.46736400	          0.00000000	          0.00000000	          0.00000000	          0.00000000	
          1.37187500	       -278.86065700	       1578.80163600	         -0.70451200	          0.87512200	          0.00000000	         -0.33702700	          0.00000000	          0.00000000	          0.00000000	          0.00000000	          0.00000000	          0.00000000	          0.00000000	         -3.28499200	          0.00000000	          0.00000000	          0.00000000	          0.00000000	
          1.37291700	       -274.25125100	       1592.94030800	         -1.61882600	          0.87110700	          0.00000000	         -0.33678300	          0.00000000	          0.00000000	          0.00000000	          0.00000000	          0.00000000	          0.00000000	          0.00000000	         -3.09317900	          0.00000000	          0.00000000	          0.00000000	          0.00000000	
          1.37395800	       -269.14291400	       1607.23059100	         -2.33898300	          0.86707400	          0.00000000	         -0.33650900	          0.00000000	          0.00000000	          0.00000000	          0.00000000	          0.00000000	          0.00000000	          0.00000000	         -2.89260000	          0.00000000	          0.00000000	          0.00000000	          0.00000000	
          1.37500000	       -263.57309000	       1621.57495100	         -2.86998900	          0.86302700	          0.00000000	         -0.33620700	          0.00000000	          0.00000000	          0.00000000	          0.00000000	          0.00000000	          0.00000000	          0.00000000	         -2.68392400	          0.00000000	          0.00000000	          0.00000000	          0.00000000	
          1.37604200	       -257.58029200	       1635.87390100	         -3.22095300	          0.85897000	          0.00000000	         -0.33588100	          0.00000000	          0.00000000	          0.00000000	          0.00000000	          0.00000000	          0.00000000	          0.00000000	         -2.46781800	          0.00000000	          0.00000000	          0.00000000	          0.00000000	
